<svg width="8" height="14" viewBox="0 0 8 14" fill="none" xmlns="http://www.w3.org/2000/svg">
<mask id="mask0_1_1487" style="mask-type:alpha" maskUnits="userSpaceOnUse" x="0" y="0" width="8" height="14">
<path d="M0 0H7.99995V13.3613H0V0Z" fill="black"/>
</mask>
<g mask="url(#mask0_1_1487)">
<path d="M6.86934 13.354C6.78991 13.3633 6.60887 13.3642 6.53034 13.354C6.32352 13.3277 6.04027 13.1877 5.87812 13.0546C4.10728 11.3425 2.43086 9.52701 0.650726 7.82511C0.248781 7.44085 0 7.31196 0 6.66543C0 6.0246 0.250879 5.88762 0.650726 5.50576C2.41857 3.81794 4.0809 2.01414 5.83885 0.315233C7.08785 -0.675393 8.64588 0.872742 7.67833 2.12893L3.14093 6.66543L7.67833 11.2019C8.36383 11.9591 7.88814 13.2332 6.86934 13.354Z" fill="white"/>
</g>
</svg>
