<svg width="30" height="30" viewBox="0 0 30 30" fill="none" xmlns="http://www.w3.org/2000/svg">
<mask id="mask0_1_600" style="mask-type:alpha" maskUnits="userSpaceOnUse" x="0" y="0" width="30" height="30">
<path d="M0 0H29.5746V29.5745H0V0Z" fill="black"/>
</mask>
<g mask="url(#mask0_1_600)">
<path d="M0 2.94775C0.282876 1.38228 1.44332 0.210884 3.03942 0.00902796L17.8207 0C19.5706 0.165667 20.8346 1.52403 20.9657 3.26612C20.9316 7.2878 21.0382 11.3318 20.9119 15.3401L13.5173 22.7318C12.7294 23.6087 12.7199 24.7794 12.4679 25.8701L3.203 25.8805C1.64278 25.8053 0.187427 24.4948 0 22.9323V2.94775ZM4.83915 4.9278C3.3753 5.11121 3.30486 7.06959 4.72132 7.38117C6.36912 7.2547 8.41453 7.60054 10.0163 7.3902C11.4366 7.2037 11.5215 5.04501 9.79219 4.90944C8.20558 4.78505 6.4435 4.99308 4.83915 4.9278ZM4.60488 9.89179C3.32067 10.3303 3.41496 12.0621 4.76492 12.3048H16.2015C17.5917 12.0614 17.5928 10.1227 16.2015 9.8786L4.60488 9.89179ZM4.72132 14.8022C3.30486 15.1138 3.3753 17.0722 4.83915 17.2556C6.83379 17.1342 9.15375 17.4771 11.1114 17.2647C12.6196 17.101 12.7336 15.2057 11.3359 14.802L4.72132 14.8022Z" fill="#999999"/>
<path d="M15.6527 29.5744H15.1906C14.7815 29.3684 14.5197 29.108 14.4958 28.6243C14.7686 27.2796 14.9418 25.9127 15.2462 24.5761C18.3692 21.2382 21.6776 18.0188 24.9566 14.8218C25.523 14.4248 26.1433 14.2385 26.8169 14.5115C27.2976 14.7063 29.0961 16.4914 29.3314 16.9642C29.7023 17.7091 29.6525 18.5813 29.1583 19.2545L19.6921 28.7332L19.2466 28.9231L15.6527 29.5744Z" fill="#999999"/>
</g>
</svg>
