<svg width="40" height="40" viewBox="0 0 40 40" fill="none" xmlns="http://www.w3.org/2000/svg">
<mask id="mask0_1_320" style="mask-type:alpha" maskUnits="userSpaceOnUse" x="0" y="0" width="40" height="40">
<path d="M0 0H40V40H0V0Z" fill="black"/>
</mask>
<g mask="url(#mask0_1_320)">
<path d="M40 19.9997C40 31.0455 31.0468 39.9987 20.001 39.9987C8.95522 39.9987 0 31.0455 0 19.9997C0 8.95396 8.95522 0.000732422 20.001 0.000732422C31.0468 0.000732422 40 8.95396 40 19.9997Z" fill="#3199BC"/>
<path d="M26.2857 25.0314V22.0383H14.7847V17.6336H26.2857V14.6405L33.4658 19.8359L26.2857 25.0314Z" fill="white"/>
<path d="M23.9565 32.5611H14.8596C12.3577 32.5611 10.321 30.5264 10.321 28.0245V11.1344C10.321 8.63254 12.3577 6.5979 14.8596 6.5979H23.9565C26.4584 6.5979 28.4931 8.63254 28.4931 11.1344V12.6918C28.4931 12.9694 28.2694 13.195 27.9919 13.195C27.7143 13.195 27.4907 12.9694 27.4907 12.6918V11.1344C27.4907 9.18763 25.9053 7.60224 23.9565 7.60224H14.8596C12.9108 7.60224 11.3254 9.18763 11.3254 11.1344V28.0245C11.3254 29.9713 12.9108 31.5567 14.8596 31.5567H23.9565C25.9053 31.5567 27.4907 29.9713 27.4907 28.0245V27.13C27.4907 26.8525 27.7143 26.6269 27.9919 26.6269C28.2694 26.6269 28.4931 26.8525 28.4931 27.13V28.0245C28.4931 30.5264 26.4584 32.5611 23.9565 32.5611Z" fill="white"/>
</g>
</svg>
