<svg width="24" height="24" viewBox="0 0 24 24" fill="none" xmlns="http://www.w3.org/2000/svg">
<path d="M16.9265 14.8984H15.8585L15.481 14.5331C18.6453 10.844 18.2217 5.28889 14.5326 2.12154C10.8466 -1.04274 5.28838 -0.619196 2.1241 3.0699C-1.04325 6.75901 -0.619706 12.3141 3.06939 15.4784C6.36564 18.3112 11.2364 18.3112 14.5326 15.4784L14.8978 15.859V16.927L21.6591 23.673L23.6725 21.6566L16.9265 14.8984ZM8.81481 14.8984C5.45411 14.8984 2.73179 12.176 2.73179 8.81532C2.73179 5.45462 5.45411 2.7323 8.81481 2.7323C12.1755 2.7323 14.8978 5.45462 14.8978 8.81532C14.904 12.1699 12.1878 14.8953 8.83016 14.8984H8.81481Z" fill="white"/>
</svg>
