<svg width="21" height="28" viewBox="0 0 21 28" fill="none" xmlns="http://www.w3.org/2000/svg">
<mask id="mask0_1_1287" style="mask-type:alpha" maskUnits="userSpaceOnUse" x="0" y="0" width="21" height="28">
<path d="M0 0H20.6512V27.391H0V0Z" fill="black"/>
</mask>
<g mask="url(#mask0_1_1287)">
<path d="M18.6701 0C19.7138 0.225885 20.4979 0.983672 20.6486 2.05991L20.6512 26.0785C20.6067 26.5223 20.4233 26.9886 20.0245 27.2171C19.1099 27.7405 18.3969 26.9662 17.7353 26.423C15.6158 24.6831 13.531 22.6079 11.3671 20.9699C10.6703 20.4423 10.0871 20.4428 9.39099 20.9699C7.0318 22.7555 4.85584 25.0771 2.48767 26.8508C1.35358 27.7003 0.308261 27.5867 0.00241773 26.0761L0 2.11103C0.0775401 1.08815 1.09506 0.126413 2.08806 0H18.6701Z" fill="#686868"/>
</g>
</svg>
